<svg xmlns="http://www.w3.org/2000/svg" xmlns:xlink="http://www.w3.org/1999/xlink" contentStyleType="text/css" height="1035px" preserveAspectRatio="none" style="width:705px;height:1035px;background:#FFFFFF;" version="1.1" viewBox="0 0 705 1035" width="705px" zoomAndPan="magnify"><defs/><g><text fill="#000000" font-family="sans-serif" font-size="14" font-weight="bold" lengthAdjust="spacing" textLength="156.7993" x="276.0981" y="28.5099">Evaluation Supervisor</text><rect fill="#E0E0E0" height="757.9974" style="stroke:#2A86E2;stroke-width:1.0;" width="10" x="295.1481" y="182.2497"/><rect fill="#E0E0E0" height="235.7491" style="stroke:#2A86E2;stroke-width:1.0;" width="10" x="468.6469" y="342.2492"/><rect fill="#E0E0E0" height="236.499" style="stroke:#2A86E2;stroke-width:1.0;" width="10" x="468.6469" y="688.7481"/><rect fill="none" height="805.9973" style="stroke:#000000;stroke-width:1.5;" width="689.9955" x="10" y="134.2498"/><rect fill="none" height="387.7486" style="stroke:#000000;stroke-width:1.5;" width="669.9955" x="20" y="198.2497"/><rect fill="none" height="333.2488" style="stroke:#000000;stroke-width:1.5;" width="669.9955" x="20" y="599.9983"/><line style="stroke:#2A86E2;stroke-width:0.5;stroke-dasharray:5.0,5.0;" x1="74" x2="74" y1="117.2498" y2="957.2471"/><line style="stroke:#2A86E2;stroke-width:0.5;stroke-dasharray:5.0,5.0;" x1="299.5486" x2="299.5486" y1="181.8748" y2="957.2471"/><line style="stroke:#2A86E2;stroke-width:0.5;stroke-dasharray:5.0,5.0;" x1="472.6474" x2="472.6474" y1="688.3732" y2="957.2471"/><line style="stroke:#2A86E2;stroke-width:0.5;stroke-dasharray:5.0,5.0;" x1="629.4963" x2="629.4963" y1="117.2498" y2="957.2471"/><text fill="#000000" font-family="Verdana" font-size="11" lengthAdjust="spacing" textLength="82.4993" x="30" y="114.1148">External Actor</text><ellipse cx="74.2497" cy="51.9999" fill="#2A86E2" rx="8" ry="8" style="stroke:#1A66C2;stroke-width:0.5;"/><path d="M74.2497,59.9999 L74.2497,86.9999 M61.2497,67.9999 L87.2497,67.9999 M74.2497,86.9999 L61.2497,101.9999 M74.2497,86.9999 L87.2497,101.9999 " fill="none" style="stroke:#1A66C2;stroke-width:0.5;"/><text fill="#000000" font-family="Verdana" font-size="11" lengthAdjust="spacing" textLength="82.4993" x="30" y="966.862">External Actor</text><ellipse cx="74.2497" cy="978.497" fill="#2A86E2" rx="8" ry="8" style="stroke:#1A66C2;stroke-width:0.5;"/><path d="M74.2497,986.497 L74.2497,1013.497 M61.2497,994.497 L87.2497,994.497 M74.2497,1013.497 L61.2497,1028.497 M74.2497,1013.497 L87.2497,1028.497 " fill="none" style="stroke:#1A66C2;stroke-width:0.5;"/><rect fill="#CCCCCC" height="27.7499" rx="2.5" ry="2.5" style="stroke:#AAAAAA;stroke-width:0.5;" width="137.199" x="231.5486" y="956.2471"/><text fill="#000000" font-family="Verdana" font-size="11" lengthAdjust="spacing" textLength="123.199" x="238.5486" y="973.862">Evaluation Supervisor</text><rect fill="#CCCCCC" height="27.7499" rx="2.5" ry="2.5" style="stroke:#AAAAAA;stroke-width:0.5;" width="123.9991" x="411.6474" y="956.2471"/><text fill="#000000" font-family="Verdana" font-size="11" lengthAdjust="spacing" textLength="109.9991" x="418.6474" y="973.862">Evaluation Manager</text><text fill="#000000" font-family="Verdana" font-size="11" lengthAdjust="spacing" textLength="93.4992" x="580.4963" y="114.1148">External Actor 2</text><ellipse cx="630.2459" cy="51.9999" fill="#2A86E2" rx="8" ry="8" style="stroke:#1A66C2;stroke-width:0.5;"/><path d="M630.2459,59.9999 L630.2459,86.9999 M617.2459,67.9999 L643.2459,67.9999 M630.2459,86.9999 L617.2459,101.9999 M630.2459,86.9999 L643.2459,101.9999 " fill="none" style="stroke:#1A66C2;stroke-width:0.5;"/><text fill="#000000" font-family="Verdana" font-size="11" lengthAdjust="spacing" textLength="93.4992" x="580.4963" y="966.862">External Actor 2</text><ellipse cx="630.2459" cy="978.497" fill="#2A86E2" rx="8" ry="8" style="stroke:#1A66C2;stroke-width:0.5;"/><path d="M630.2459,986.497 L630.2459,1013.497 M617.2459,994.497 L643.2459,994.497 M630.2459,1013.497 L617.2459,1028.497 M630.2459,1013.497 L643.2459,1028.497 " fill="none" style="stroke:#1A66C2;stroke-width:0.5;"/><rect fill="#E0E0E0" height="757.9974" style="stroke:#2A86E2;stroke-width:1.0;" width="10" x="295.1481" y="182.2497"/><rect fill="#E0E0E0" height="235.7491" style="stroke:#2A86E2;stroke-width:1.0;" width="10" x="468.6469" y="342.2492"/><rect fill="#E0E0E0" height="236.499" style="stroke:#2A86E2;stroke-width:1.0;" width="10" x="468.6469" y="688.7481"/><path d="M10,134.2498 L136.9001,134.2498 L136.9001,142.4998 L126.9001,152.4998 L10,152.4998 L10,134.2498 " fill="#EEEEEE" style="stroke:#000000;stroke-width:1.5;"/><rect fill="none" height="805.9973" style="stroke:#000000;stroke-width:1.5;" width="689.9955" x="10" y="134.2498"/><text fill="#000000" font-family="sans-serif" font-size="13" font-weight="bold" lengthAdjust="spacing" textLength="81.9001" x="25" y="147.7948">New Session</text><polygon fill="#000000" points="219.5486,168.2497,229.5486,172.2497,219.5486,176.2497,223.5486,172.2497" style="stroke:#000000;stroke-width:1.0;"/><line style="stroke:#000000;stroke-width:1.0;" x1="74.2497" x2="225.5486" y1="172.2497" y2="172.2497"/><text fill="#333333" font-family="Verdana" font-size="11" lengthAdjust="spacing" textLength="37.3997" x="81.2497" y="167.1148">Create</text><rect fill="#CCCCCC" height="27.7499" rx="2.5" ry="2.5" style="stroke:#AAAAAA;stroke-width:0.5;" width="137.199" x="231.5486" y="152.4998"/><text fill="#000000" font-family="Verdana" font-size="11" lengthAdjust="spacing" textLength="123.199" x="238.5486" y="170.1148">Evaluation Supervisor</text><path d="M20,198.2497 L334.1002,198.2497 L334.1002,206.4997 L324.1002,216.4997 L20,216.4997 L20,198.2497 " fill="#EEEEEE" style="stroke:#000000;stroke-width:1.5;"/><rect fill="none" height="387.7486" style="stroke:#000000;stroke-width:1.5;" width="669.9955" x="20" y="198.2497"/><text fill="#000000" font-family="sans-serif" font-size="13" font-weight="bold" lengthAdjust="spacing" textLength="269.1002" x="35" y="211.7947">Basic Evaluation with stdout and stderr</text><line style="stroke:#000000;stroke-width:1.0;" x1="293.1481" x2="283.1481" y1="249.9995" y2="245.9995"/><line style="stroke:#000000;stroke-width:1.0;" x1="293.1481" x2="283.1481" y1="249.9995" y2="253.9995"/><line style="stroke:#000000;stroke-width:1.0;" x1="74.2497" x2="294.1481" y1="249.9995" y2="249.9995"/><text fill="#333333" font-family="Verdana" font-size="11" lengthAdjust="spacing" textLength="118.799" x="81.2497" y="231.1147">nREPL eval operation</text><text fill="#333333" font-family="Verdana" font-size="11" lengthAdjust="spacing" textLength="196.8984" x="81.2497" y="244.8646">Command: process-nrepl-message</text><line style="stroke:#000000;stroke-width:1.0;" x1="305.1481" x2="347.1481" y1="291.4993" y2="291.4993"/><line style="stroke:#000000;stroke-width:1.0;" x1="347.1481" x2="347.1481" y1="291.4993" y2="304.4993"/><line style="stroke:#000000;stroke-width:1.0;" x1="306.1481" x2="347.1481" y1="304.4993" y2="304.4993"/><polygon fill="#000000" points="316.1481,300.4993,306.1481,304.4993,316.1481,308.4993,312.1481,304.4993" style="stroke:#000000;stroke-width:1.0;"/><text fill="#333333" font-family="Verdana" font-size="11" lengthAdjust="spacing" textLength="51.6996" x="312.1481" y="272.6145">Enqueue.</text><text fill="#333333" font-family="Verdana" font-size="11" lengthAdjust="spacing" textLength="111.0991" x="312.1481" y="286.3644">Command: evaluate</text><line style="stroke:#000000;stroke-width:1.0;" x1="409.6474" x2="399.6474" y1="332.2492" y2="328.2492"/><line style="stroke:#000000;stroke-width:1.0;" x1="409.6474" x2="399.6474" y1="332.2492" y2="336.2492"/><line style="stroke:#000000;stroke-width:1.0;" x1="305.1481" x2="410.6474" y1="332.2492" y2="332.2492"/><text fill="#333333" font-family="Verdana" font-size="11" lengthAdjust="spacing" textLength="82.4993" x="312.1481" y="327.1143">Run Evaluation</text><rect fill="#CCCCCC" height="27.7499" rx="2.5" ry="2.5" style="stroke:#AAAAAA;stroke-width:0.5;" width="123.9991" x="411.6474" y="312.4993"/><text fill="#000000" font-family="Verdana" font-size="11" lengthAdjust="spacing" textLength="109.9991" x="418.6474" y="330.1143">Evaluation Manager</text><line style="stroke:#000000;stroke-width:1.0;" x1="75.2497" x2="85.2497" y1="370.9991" y2="366.9991"/><line style="stroke:#000000;stroke-width:1.0;" x1="75.2497" x2="85.2497" y1="370.9991" y2="374.9991"/><line style="stroke:#000000;stroke-width:1.0;" x1="74.2497" x2="467.6469" y1="370.9991" y2="370.9991"/><text fill="#333333" font-family="Verdana" font-size="11" lengthAdjust="spacing" textLength="123.199" x="91.2497" y="365.8642">Send Standard Output</text><line style="stroke:#000000;stroke-width:1.0;" x1="75.2497" x2="85.2497" y1="398.749" y2="394.749"/><line style="stroke:#000000;stroke-width:1.0;" x1="75.2497" x2="85.2497" y1="398.749" y2="402.749"/><line style="stroke:#000000;stroke-width:1.0;" x1="74.2497" x2="467.6469" y1="398.749" y2="398.749"/><text fill="#333333" font-family="Verdana" font-size="11" lengthAdjust="spacing" textLength="102.2991" x="91.2497" y="393.6141">Send Error Output</text><line style="stroke:#000000;stroke-width:1.0;" x1="306.1481" x2="316.1481" y1="440.2488" y2="436.2488"/><line style="stroke:#000000;stroke-width:1.0;" x1="306.1481" x2="316.1481" y1="440.2488" y2="444.2488"/><line style="stroke:#000000;stroke-width:1.0;" x1="305.1481" x2="629.2459" y1="440.2488" y2="440.2488"/><text fill="#333333" font-family="Verdana" font-size="11" lengthAdjust="spacing" textLength="118.799" x="322.1481" y="421.3639">nREPL eval operation</text><text fill="#333333" font-family="Verdana" font-size="11" lengthAdjust="spacing" textLength="196.8984" x="322.1481" y="435.1138">Command: process-nrepl-message</text><line style="stroke:#000000;stroke-width:1.0;" x1="305.1481" x2="347.1481" y1="467.9987" y2="467.9987"/><line style="stroke:#000000;stroke-width:1.0;" x1="347.1481" x2="347.1481" y1="467.9987" y2="480.9987"/><line style="stroke:#000000;stroke-width:1.0;" x1="306.1481" x2="347.1481" y1="480.9987" y2="480.9987"/><polygon fill="#000000" points="316.1481,476.9987,306.1481,480.9987,316.1481,484.9987,312.1481,480.9987" style="stroke:#000000;stroke-width:1.0;"/><text fill="#333333" font-family="Verdana" font-size="11" lengthAdjust="spacing" textLength="108.8991" x="312.1481" y="462.8637">Enqueue Evaluation</text><line style="stroke:#000000;stroke-width:1.0;" x1="75.2497" x2="85.2497" y1="508.7486" y2="504.7486"/><line style="stroke:#000000;stroke-width:1.0;" x1="75.2497" x2="85.2497" y1="508.7486" y2="512.7486"/><line style="stroke:#000000;stroke-width:1.0;" x1="74.2497" x2="467.6469" y1="508.7486" y2="508.7486"/><text fill="#333333" font-family="Verdana" font-size="11" lengthAdjust="spacing" textLength="123.199" x="91.2497" y="503.6136">Send Standard Output</text><line style="stroke:#000000;stroke-width:1.0;" x1="75.2497" x2="85.2497" y1="536.4985" y2="532.4985"/><line style="stroke:#000000;stroke-width:1.0;" x1="75.2497" x2="85.2497" y1="536.4985" y2="540.4985"/><line style="stroke:#000000;stroke-width:1.0;" x1="74.2497" x2="467.6469" y1="536.4985" y2="536.4985"/><text fill="#333333" font-family="Verdana" font-size="11" lengthAdjust="spacing" textLength="123.199" x="91.2497" y="531.3635">Send Evaluation Value</text><line style="stroke:#000000;stroke-width:1.0;" x1="306.1481" x2="316.1481" y1="577.9983" y2="573.9983"/><line style="stroke:#000000;stroke-width:1.0;" x1="306.1481" x2="316.1481" y1="577.9983" y2="581.9983"/><line style="stroke:#000000;stroke-width:1.0;stroke-dasharray:2.0,2.0;" x1="305.1481" x2="472.6469" y1="577.9983" y2="577.9983"/><text fill="#333333" font-family="Verdana" font-size="11" lengthAdjust="spacing" textLength="26.3998" x="322.1481" y="559.1134">Done</text><text fill="#333333" font-family="Verdana" font-size="11" lengthAdjust="spacing" textLength="107.7991" x="322.1481" y="572.8633">Command: finished</text><line style="stroke:#2A86E2;stroke-width:2.0;" x1="464.6469" x2="482.6469" y1="568.9983" y2="586.9983"/><line style="stroke:#2A86E2;stroke-width:2.0;" x1="464.6469" x2="482.6469" y1="586.9983" y2="568.9983"/><path d="M20,599.9983 L286.0001,599.9983 L286.0001,608.2483 L276.0001,618.2483 L20,618.2483 L20,599.9983 " fill="#EEEEEE" style="stroke:#000000;stroke-width:1.5;"/><rect fill="none" height="333.2488" style="stroke:#000000;stroke-width:1.5;" width="669.9955" x="20" y="599.9983"/><text fill="#000000" font-family="sans-serif" font-size="13" font-weight="bold" lengthAdjust="spacing" textLength="221.0001" x="35" y="613.5433">Queued Evaluation with interrupt</text><line style="stroke:#000000;stroke-width:1.0;" x1="305.1481" x2="347.1481" y1="637.9982" y2="637.9982"/><line style="stroke:#000000;stroke-width:1.0;" x1="347.1481" x2="347.1481" y1="637.9982" y2="650.9982"/><line style="stroke:#000000;stroke-width:1.0;" x1="306.1481" x2="347.1481" y1="650.9982" y2="650.9982"/><polygon fill="#000000" points="316.1481,646.9982,306.1481,650.9982,316.1481,654.9982,312.1481,650.9982" style="stroke:#000000;stroke-width:1.0;"/><text fill="#333333" font-family="Verdana" font-size="11" lengthAdjust="spacing" textLength="111.0991" x="312.1481" y="632.8632">Command: evaluate</text><line style="stroke:#000000;stroke-width:1.0;" x1="409.6474" x2="399.6474" y1="678.7481" y2="674.7481"/><line style="stroke:#000000;stroke-width:1.0;" x1="409.6474" x2="399.6474" y1="678.7481" y2="682.7481"/><line style="stroke:#000000;stroke-width:1.0;" x1="305.1481" x2="410.6474" y1="678.7481" y2="678.7481"/><text fill="#333333" font-family="Verdana" font-size="11" lengthAdjust="spacing" textLength="82.4993" x="312.1481" y="673.6131">Run Evaluation</text><rect fill="#CCCCCC" height="27.7499" rx="2.5" ry="2.5" style="stroke:#AAAAAA;stroke-width:0.5;" width="123.9991" x="411.6474" y="658.9982"/><text fill="#000000" font-family="Verdana" font-size="11" lengthAdjust="spacing" textLength="109.9991" x="418.6474" y="676.6131">Evaluation Manager</text><line style="stroke:#000000;stroke-width:1.0;" x1="628.2459" x2="618.2459" y1="717.498" y2="713.498"/><line style="stroke:#000000;stroke-width:1.0;" x1="628.2459" x2="618.2459" y1="717.498" y2="721.498"/><line style="stroke:#000000;stroke-width:1.0;" x1="478.6469" x2="629.2459" y1="717.498" y2="717.498"/><text fill="#333333" font-family="Verdana" font-size="11" lengthAdjust="spacing" textLength="123.199" x="485.6469" y="712.363">Send Standard Output</text><line style="stroke:#000000;stroke-width:1.0;" x1="293.1481" x2="283.1481" y1="758.9978" y2="754.9978"/><line style="stroke:#000000;stroke-width:1.0;" x1="293.1481" x2="283.1481" y1="758.9978" y2="762.9978"/><line style="stroke:#000000;stroke-width:1.0;" x1="74.2497" x2="294.1481" y1="758.9978" y2="758.9978"/><text fill="#333333" font-family="Verdana" font-size="11" lengthAdjust="spacing" textLength="147.3988" x="81.2497" y="740.1129">nREPL interrupt operation</text><text fill="#333333" font-family="Verdana" font-size="11" lengthAdjust="spacing" textLength="196.8984" x="81.2497" y="753.8628">Command: process-nrepl-message</text><line style="stroke:#000000;stroke-width:1.0;" x1="75.2497" x2="85.2497" y1="786.7477" y2="782.7477"/><line style="stroke:#000000;stroke-width:1.0;" x1="75.2497" x2="85.2497" y1="786.7477" y2="790.7477"/><line style="stroke:#000000;stroke-width:1.0;" x1="74.2497" x2="294.1481" y1="786.7477" y2="786.7477"/><text fill="#333333" font-family="Verdana" font-size="11" lengthAdjust="spacing" textLength="127.599" x="91.2497" y="781.6127">interrupt-id-mismatch</text><line style="stroke:#000000;stroke-width:1.0;" x1="306.1481" x2="316.1481" y1="828.2475" y2="824.2475"/><line style="stroke:#000000;stroke-width:1.0;" x1="306.1481" x2="316.1481" y1="828.2475" y2="832.2475"/><line style="stroke:#000000;stroke-width:1.0;" x1="305.1481" x2="629.2459" y1="828.2475" y2="828.2475"/><text fill="#333333" font-family="Verdana" font-size="11" lengthAdjust="spacing" textLength="147.3988" x="322.1481" y="809.3626">nREPL interrupt operation</text><text fill="#333333" font-family="Verdana" font-size="11" lengthAdjust="spacing" textLength="196.8984" x="322.1481" y="823.1125">Command: process-nrepl-message</text><line style="stroke:#000000;stroke-width:1.0;" x1="466.6469" x2="456.6469" y1="855.9974" y2="851.9974"/><line style="stroke:#000000;stroke-width:1.0;" x1="466.6469" x2="456.6469" y1="855.9974" y2="859.9974"/><line style="stroke:#000000;stroke-width:1.0;" x1="305.1481" x2="467.6469" y1="855.9974" y2="855.9974"/><text fill="#333333" font-family="Verdana" font-size="11" lengthAdjust="spacing" textLength="89.0993" x="312.1481" y="850.8624">Signal Interrupt</text><line style="stroke:#000000;stroke-width:1.0;" x1="628.2459" x2="618.2459" y1="883.7473" y2="879.7473"/><line style="stroke:#000000;stroke-width:1.0;" x1="628.2459" x2="618.2459" y1="883.7473" y2="887.7473"/><line style="stroke:#000000;stroke-width:1.0;" x1="478.6469" x2="629.2459" y1="883.7473" y2="883.7473"/><text fill="#333333" font-family="Verdana" font-size="11" lengthAdjust="spacing" textLength="127.5989" x="485.6469" y="878.6123">Succesful Interruption</text><line style="stroke:#000000;stroke-width:1.0;" x1="306.1481" x2="316.1481" y1="925.2471" y2="921.2471"/><line style="stroke:#000000;stroke-width:1.0;" x1="306.1481" x2="316.1481" y1="925.2471" y2="929.2471"/><line style="stroke:#000000;stroke-width:1.0;stroke-dasharray:2.0,2.0;" x1="305.1481" x2="472.6469" y1="925.2471" y2="925.2471"/><text fill="#333333" font-family="Verdana" font-size="11" lengthAdjust="spacing" textLength="26.3998" x="322.1481" y="906.3622">Done</text><text fill="#333333" font-family="Verdana" font-size="11" lengthAdjust="spacing" textLength="107.7991" x="322.1481" y="920.1121">Command: finished</text><line style="stroke:#2A86E2;stroke-width:2.0;" x1="464.6469" x2="482.6469" y1="916.2471" y2="934.2471"/><line style="stroke:#2A86E2;stroke-width:2.0;" x1="464.6469" x2="482.6469" y1="934.2471" y2="916.2471"/><!--SRC=[nPHDRzim38Rl-XLi3mjGp2kGOmu5jiw70VjiW9rsKIp65cPB7aMbwtxzw3WVMkm43P1YFiaI-P9wIEgAAsmG28qX326hRLdneeweRYVW40qQM7g2LwzX4HcYan-EJZFMzHCi2FNF0CRgadG3arlnKZ21gvPqsMXWz7-0ITIwCyMMQuHyfUkesNe7yzWYhMpmf9GkME9SvxyPoUaQtdR_rw13lrAj9hQ5RRLZiHhJM1idaiSyFccdI-pDD-lnw33Tnv-gadniuJC-mbn8YP22pTSRPtT9SBYvcS6zu67ScKaCkvADDCVjMI_-JWTRf80UBLSGs7XXhvtfbaXxhyC4qWncu1xohny1HGsyxAuLVxXxtpGYDOEMVD6Lt16sTTR8KaYeWNPof-nV_TpzYXZnJQA9VUfuMkLkYtrDwI6wvCe3pnsrRQaE3RPQdUuQn4mA9ApcB2bfCl0bSXlvsNuvaMHvnAdlXSkWFflqAKmNfx1lmk-wUmyE7GavaeFttc5oqwLrDbHe1kO60vD_6bHHOXqCmRVkgcOm1TR9Q59i-PmM7JRcV-tCwJEBScgUTnmkrMcxkk-KCskoneP6Sr6fyqRW1RBRK1HqjkoUvW_76s4KU2mavZ8cZcF5V85sDZZsuel5Nm00]--></g></svg>